<?xml version="1.0" encoding="UTF-8"?>
<svg version="1.1" xmlns="http://www.w3.org/2000/svg" width="24" height="24">
<path d="M0 0 C6.6 0 13.2 0 20 0 C20 4.95 20 9.9 20 15 C17.15375 15.1546875 17.15375 15.1546875 14.25 15.3125 C9.81882813 15.55332456 7.32851768 15.98656045 4 19 C4 17.68 4 16.36 4 15 C2.68 15 1.36 15 0 15 C0 10.05 0 5.1 0 0 Z M2 3 C2 5.97 2 8.94 2 12 C5.79267192 12.9360342 8.93674565 12.98276252 12.8125 12.5625 C13.78832031 12.46066406 14.76414062 12.35882813 15.76953125 12.25390625 C16.50558594 12.17011719 17.24164063 12.08632812 18 12 C18 9.03 18 6.06 18 3 C12.72 3 7.44 3 2 3 Z " fill="#FFFFFF" transform="translate(2,3)"/>
<path d="M0 0 C1.32 0 2.64 0 4 0 C4 0.99 4 1.98 4 3 C2.68 3 1.36 3 0 3 C0 2.01 0 1.02 0 0 Z " fill="#FFFFFF" transform="translate(10,9)"/>
<path d="M0 0 C0.99 0 1.98 0 3 0 C3 0.99 3 1.98 3 3 C2.01 3 1.02 3 0 3 C0 2.01 0 1.02 0 0 Z " fill="#FFFFFF" transform="translate(15,9)"/>
<path d="M0 0 C0.99 0 1.98 0 3 0 C3 0.99 3 1.98 3 3 C2.01 3 1.02 3 0 3 C0 2.01 0 1.02 0 0 Z " fill="#FFFFFF" transform="translate(6,9)"/>
</svg>
